<svg width="205" height="21" viewBox="0 0 205 21" fill="none" xmlns="http://www.w3.org/2000/svg">
<g clip-path="url(#clip0_57_475)">
<path d="M153.458 0.475464H152.071V1.86226C152.071 2.21886 152.23 2.65471 152.943 2.65471H154.33V1.26792C154.33 0.950936 154.211 0.475464 153.458 0.475464Z" fill="#004CFF"/>
<path d="M153.34 4.95276H152.23V16.4037C152.23 16.8792 152.547 17.1962 152.983 17.2358V17.2754H154.251V5.78483C154.212 5.26974 153.934 4.95276 153.34 4.95276Z" fill="#004CFF"/>
<path d="M86.2184 13.9075C85.7429 13.4321 85.1486 13.5509 84.792 13.8679C83.326 15.0962 81.9788 15.5717 80.2354 15.5717C76.7486 15.5717 73.975 12.6396 73.975 8.87546C73.975 5.11131 76.6693 2.21885 80.2354 2.21885C81.9392 2.21885 83.3656 2.73395 84.7127 3.883C85.0297 4.16036 85.5844 4.27923 85.9807 3.84338C86.3373 3.48678 86.6939 3.09055 86.6939 3.09055L86.7731 3.01131L86.6939 2.93206C85.2675 1.54527 83.4844 0.277344 80.2354 0.277344C75.5203 0.277344 71.875 4.08112 71.875 8.91508C71.875 13.7887 75.441 17.4736 80.1958 17.4736C82.8505 17.4736 84.792 16.6019 86.7731 14.5415L86.8127 14.4623L86.7731 14.383C86.7731 14.4623 86.6543 14.3038 86.2184 13.9075Z" fill="#004CFF"/>
<path d="M116.332 4.67544C114.589 4.67544 113.202 5.42827 112.132 6.93393C111.656 5.98298 110.547 4.59619 108.249 4.59619C106.268 4.59619 105.198 5.62638 104.406 6.65657V5.78487C104.406 5.19053 104.049 4.83393 103.494 4.83393H102.385V17.1566H103.494C104.049 17.1566 104.366 16.9981 104.366 16.3245V10.183C104.366 8.04336 105.753 6.45846 107.615 6.45846C109.517 6.45846 110.626 7.766 110.626 9.98487V16.3245C110.626 16.9188 110.943 17.1962 111.498 17.1962H112.607V10.1434C112.607 7.60751 114.232 6.49808 115.856 6.49808C117.798 6.49808 118.907 7.80563 118.907 10.0245V16.2056C118.907 16.7207 119.026 17.1962 119.819 17.1962H120.889V9.62827C120.928 6.57732 119.185 4.67544 116.332 4.67544Z" fill="#004CFF"/>
<path d="M130.635 4.71509C128.813 4.71509 127.307 5.50754 126.079 7.21131V5.94339C126.079 5.30943 125.722 4.99245 125.088 4.99245H124.098V20.1283C124.098 20.7226 124.375 21 124.969 21H126.079V15.1358C127.307 16.7207 128.773 17.5132 130.635 17.5132C133.488 17.5132 136.5 15.2547 136.5 11.0943C136.5 6.93396 133.488 4.71509 130.635 4.71509ZM134.439 11.0943C134.439 13.7887 132.735 15.6509 130.279 15.6509C128.179 15.6509 126 13.9075 126 11.0547C126 8.20188 128.179 6.45848 130.279 6.45848C132.339 6.49811 134.439 8.08301 134.439 11.0943Z" fill="#004CFF"/>
<path d="M167.287 5.82449V6.85468C166.455 5.78487 164.989 4.59619 162.651 4.59619C161.185 4.59619 159.719 5.15091 158.649 6.14147C157.5 7.21129 156.866 8.75657 156.866 10.4207C156.866 14.1849 159.838 16.2056 162.651 16.2056C164.474 16.2056 166.019 15.4528 167.327 13.8679V15.0566C167.327 17.7509 165.742 19.2962 163.047 19.2962C161.74 19.2962 160.472 18.9792 159.283 18.3056C158.966 18.1075 158.728 18.0283 158.53 18.0283C158.293 18.0283 158.055 18.1471 157.896 18.4245C157.579 18.9396 157.461 19.1773 157.461 19.1773L157.421 19.2566L157.5 19.2962C159.125 20.4452 160.987 21 163.047 21C167.01 21 169.308 18.8207 169.308 15.0169V4.91317H168.198C167.842 4.91317 167.287 5.23015 167.287 5.82449ZM167.406 10.5396C167.406 13.0754 165.187 14.5811 163.047 14.5811C160.71 14.5811 158.966 12.8377 158.966 10.5396C158.966 8.20185 160.71 6.5377 163.047 6.5377C165.147 6.49808 167.406 7.88487 167.406 10.5396Z" fill="#004CFF"/>
<path d="M178.659 4.71509C176.915 4.71509 175.568 5.4283 174.617 6.85471V5.82452C174.617 5.23018 174.142 4.99245 173.666 4.99245H172.557V17.3151H174.577L174.538 10.2623C174.538 8.08301 176.004 6.57735 178.104 6.57735C180.164 6.57735 181.353 7.8849 181.353 10.1434V16.483C181.353 17.0774 181.63 17.3151 182.145 17.3151H183.334V9.6283C183.374 6.61697 181.551 4.71509 178.659 4.71509Z" fill="#004CFF"/>
<path d="M143.949 4.75476C142.403 4.75476 141.017 5.07174 139.511 5.74533L139.432 5.78495L139.471 5.86419C139.471 5.86419 139.669 6.41891 139.828 6.81514C139.986 7.21136 140.462 7.25099 140.818 7.0925C141.849 6.69627 142.76 6.49816 143.79 6.49816C146.049 6.49816 147.277 7.64721 147.277 9.70759V12.6793C147.277 14.5416 145.613 15.8491 143.315 15.8491C141.888 15.8491 140.343 15.1359 140.343 13.551C140.343 12.0453 141.571 11.2132 143.79 11.2132H144.781C145.375 11.2132 145.652 10.9359 145.652 10.3812V9.70759H143.592C140.224 9.70759 138.322 11.134 138.322 13.5906C138.322 15.4529 139.749 17.5132 142.958 17.5132C144.702 17.5132 146.168 16.8397 147.237 15.5717V16.4038C147.237 16.9585 147.515 17.1963 148.109 17.1963H149.218V9.66797C149.179 6.53778 147.317 4.75476 143.949 4.75476Z" fill="#004CFF"/>
<path d="M94.0643 4.75476C92.1624 4.75476 90.8153 5.23023 89.6266 5.74533L89.5473 5.82457L89.587 5.90382C89.587 5.90382 89.7851 6.45853 89.9436 6.85476C90.1021 7.25099 90.5775 7.29061 90.9341 7.13212C91.9643 6.73589 92.8757 6.53778 93.9058 6.53778C96.1643 6.53778 97.4323 7.68684 97.4323 9.74721V12.6793C97.4323 14.5416 95.7681 15.8491 93.47 15.8491C92.0436 15.8491 90.5379 15.1359 90.5379 13.551C90.5379 12.0453 91.7662 11.2132 93.9455 11.2132H94.936C95.5304 11.2132 95.8077 10.9359 95.8077 10.3812V9.70759H93.787C90.419 9.70759 88.4775 11.134 88.4775 13.5906C88.4775 15.4529 89.904 17.5132 93.0738 17.5132C94.8172 17.5132 96.2832 16.8397 97.3926 15.5717V16.4038C97.3926 16.9585 97.67 17.1963 98.2247 17.1963H99.3341V9.66797C99.2945 6.53778 97.4323 4.75476 94.0643 4.75476Z" fill="#004CFF"/>
<path d="M203.74 9.35097C203.462 9.11324 192.17 1.22833 191.655 0.911348L191.496 0.79248V2.73399C191.496 3.36795 191.813 3.56607 192.209 3.88305L192.289 3.92267C192.843 4.3189 200.887 9.90569 201.956 10.6585C200.887 11.4113 192.724 17.0774 192.209 17.3944C191.575 17.7906 191.536 18.068 191.536 18.6227V20.4849C191.536 20.4849 203.541 12.1246 203.779 11.9264C204.334 11.5302 204.453 11.0151 204.453 10.6981V10.4604C204.453 10.0642 204.215 9.66795 203.74 9.35097Z" fill="#004CFF"/>
<path d="M196.687 11.5301C197.004 11.5301 197.321 11.4113 197.638 11.1735C198.034 10.8962 198.391 10.6584 198.391 10.6584L198.509 10.5792L198.391 10.4999C198.351 10.4603 193.081 6.81504 192.526 6.45844C192.289 6.26032 191.972 6.2207 191.774 6.33957C191.575 6.45844 191.417 6.65655 191.417 6.97353V8.20183L191.457 8.24145C191.496 8.28108 195.102 10.7773 195.815 11.2528C196.132 11.4509 196.409 11.5301 196.687 11.5301Z" fill="#004CFF"/>
<path d="M28.6469 14.4227C28.2111 13.9868 27.6564 14.2642 27.4186 14.4623C26.5073 15.2944 25.4771 15.6906 24.3677 15.6906C21.9507 15.6906 20.0488 13.6698 20.0488 11.0547C20.0488 8.47926 21.9111 6.45851 24.2488 6.45851C25.596 6.45851 26.4677 7.05285 27.1809 7.60756C27.696 8.04341 28.1318 8.08303 28.4884 7.68681C28.8054 7.36983 29.162 6.9736 29.162 6.9736L29.2413 6.89435L29.162 6.81511C27.7752 5.30945 26.2299 4.63586 24.2488 4.63586C20.7224 4.63586 17.9092 7.44907 17.9092 11.0547C17.9092 14.5811 20.762 17.4736 24.2488 17.4736C26.8243 17.4736 28.2903 16.1661 29.2413 15.0566H29.3205L29.2413 14.9774C29.2413 14.9774 29.0431 14.8189 28.6469 14.4227Z" fill="#004CFF"/>
<path d="M41.8018 0.475464H40.415V1.86226C40.415 2.21886 40.5735 2.65471 41.2867 2.65471H42.6735V1.42641C42.7132 0.87169 42.3565 0.475464 41.8018 0.475464Z" fill="#004CFF"/>
<path d="M41.6432 4.95276H40.4941V16.4037C40.4941 16.8792 40.8111 17.1962 41.247 17.2358V17.2754H42.5149V5.78483C42.5545 5.26974 42.2375 4.95276 41.6432 4.95276Z" fill="#004CFF"/>
<path d="M54.6788 5.62637C54.5203 6.06221 51.509 13.3528 50.9147 14.6999C50.36 13.3132 47.3486 6.02259 47.1901 5.62637C46.992 5.15089 46.5958 4.87354 46.0807 4.87354H44.6543L44.7335 4.9924C44.7732 5.15089 49.5675 16.2056 49.7656 16.6415C49.9637 17.1566 50.2807 17.2754 50.7958 17.2754H51.0335C51.509 17.2754 51.826 17.0773 52.0241 16.6415C52.2222 16.2056 57.0166 5.23014 57.0562 5.11127L57.1354 4.95278H55.7486C55.2335 4.95278 54.8769 5.15089 54.6788 5.62637Z" fill="#004CFF"/>
<path d="M67.0807 10.3811H62.3656C61.8505 10.3811 61.5335 10.6981 61.5335 11.2132V12.0056H61.6524C63.9109 11.966 66.526 11.966 67.5958 11.966C68.2298 11.966 68.7052 11.8075 69.0618 11.4509C69.3788 11.0943 69.5373 10.5396 69.4977 9.9056C69.1411 6.73579 66.8826 4.67542 63.792 4.67542C60.4241 4.67542 57.8486 7.449 57.8486 11.0943C57.8486 14.7792 60.5034 17.5132 64.0298 17.5132C66.0901 17.5132 67.6354 16.7999 69.1015 15.215L69.1807 15.1358L69.1015 15.0565C69.1015 15.0565 68.8241 14.8188 68.5071 14.5415C68.0317 14.1452 67.5958 14.3037 67.3581 14.5415C66.4864 15.3339 65.4166 15.7301 64.109 15.7301C61.8505 15.7301 60.1864 14.1056 59.909 11.6886C59.909 11.6886 59.8694 11.4113 59.8694 11.0547C59.8694 10.6584 59.909 10.3811 59.909 10.3811C60.1467 8.00372 61.7317 6.33957 63.7524 6.33957C65.7732 6.33957 67.2392 7.68674 67.4373 9.74711C67.4769 9.94523 67.4373 10.1037 67.3977 10.183C67.2788 10.3415 67.1996 10.3811 67.0807 10.3811Z" fill="#004CFF"/>
<path d="M10.1036 1.10943C9.86588 0.633954 9.58852 0.475464 9.07343 0.475464H8.59796C8.20173 0.475464 7.84512 0.7132 7.64701 1.0698C7.48852 1.42641 0.514936 16.9585 0.435691 17.117L0.356445 17.2755H1.66399C2.21871 17.2755 2.57531 17.0377 2.85267 16.483C3.09041 16.0075 4.23946 13.3924 4.43758 12.9566H9.5489C10.1829 12.9566 10.5791 12.5604 10.5791 11.966V11.0943H5.23003L8.83569 3.01131C9.58852 4.67546 14.6206 16.166 14.8583 16.6415C15.1753 17.2755 15.9281 17.2755 16.1659 17.2755H17.3546L17.2753 17.117C17.2753 16.9585 10.3414 1.62452 10.1036 1.10943Z" fill="#004CFF"/>
<path d="M37.5624 15.4925C37.3643 15.3736 37.0869 15.334 36.8096 15.4133C36.3737 15.5321 36.0567 15.6114 35.6605 15.6114C34.3926 15.6114 33.719 14.9774 33.719 13.6699V6.73589H37.5624V5.90382C37.5624 5.26985 37.0077 4.95287 36.5322 4.95287H33.6794V1.46608C33.6794 0.911363 33.2831 0.515137 32.6888 0.515137H31.6982V13.9472C31.6982 16.2057 32.9265 17.4736 35.2247 17.4736C36.0964 17.4736 37.0869 17.2755 37.7209 16.9585L37.7605 16.9189V16.8793C37.7605 16.8793 37.8001 16.5227 37.8001 16.0868C37.8398 15.7699 37.6813 15.6114 37.5624 15.4925Z" fill="#004CFF"/>
</g>
<defs>
<clipPath id="clip0_57_475">
<rect width="204.453" height="21" fill="white"/>
</clipPath>
</defs>
</svg>
