<svg width="71" height="71" viewBox="0 0 71 71" fill="none" xmlns="http://www.w3.org/2000/svg">
<g id="fluent:arrow-reply-24-filled">
<path id="Vector" d="M35.3624 24.7107C35.6396 24.6338 35.8988 24.5025 36.1247 24.3243C36.3506 24.1462 36.5388 23.9249 36.6782 23.6732C36.8177 23.4216 36.9057 23.1447 36.937 22.8587C36.9683 22.5727 36.9423 22.2834 36.8606 22.0075C36.7789 21.7317 36.6431 21.4749 36.461 21.2521C36.279 21.0293 36.0544 20.845 35.8004 20.7099C35.5464 20.5748 35.268 20.4917 34.9815 20.4654C34.695 20.439 34.4062 20.47 34.1318 20.5565L19.4406 24.9083C18.8903 25.0714 18.4272 25.4463 18.1529 25.9505C17.8787 26.4548 17.8158 27.0472 17.9779 27.5978L22.3173 42.2847C22.48 42.8359 22.855 43.3 23.3598 43.5748C23.8646 43.8496 24.4579 43.9125 25.0091 43.7499C25.5604 43.5872 26.0244 43.2122 26.2992 42.7074C26.574 42.2026 26.637 41.6093 26.4743 41.0581L23.6115 31.3793L36.1548 38.2011C40.1108 40.3525 44.7489 40.8799 49.087 39.6715C53.4251 38.4631 57.1227 35.6139 59.3968 31.727L59.6632 31.2553C59.9377 30.7505 60.0005 30.1573 59.8376 29.6062C59.6748 29.0551 59.2997 28.5913 58.7949 28.3167C58.2901 28.0422 57.6969 27.9794 57.1459 28.1422C56.5948 28.3051 56.1309 28.6801 55.8564 29.1849C54.2495 32.1398 51.56 34.3568 48.3528 35.3703C45.1456 36.3837 41.6705 36.1146 38.6575 34.6196L38.2251 34.3943L25.6894 27.5767L35.3624 24.7107Z" fill="#242424"/>
</g>
</svg>
