<svg xmlns="http://www.w3.org/2000/svg" xmlns:xlink="http://www.w3.org/1999/xlink" xmlns:dc="http://purl.org/dc/elements/1.1/" xmlns:cc="http://creativecommons.org/ns#" xmlns:rdf="http://www.w3.org/1999/02/22-rdf-syntax-ns#" xmlns:svg="http://www.w3.org/2000/svg" xmlns:sodipodi="http://sodipodi.sourceforge.net/DTD/sodipodi-0.dtd" xmlns:inkscape="http://www.inkscape.org/namespaces/inkscape" xml:space="preserve" width="84.6666mm" height="17.4412mm" version="1.1" shape-rendering="geometricPrecision" text-rendering="geometricPrecision" image-rendering="optimizeQuality" fill-rule="evenodd" clip-rule="evenodd" viewBox="0 0 8467 1744" inkscape:version="0.48.2 r9819" sodipodi:docname="C.svg">
 <g id="Layer_x0020_1">
  <metadata id="CorelCorpID_0Corel-Layer"/>
  <sodipodi:namedview pagecolor="#ffffff" bordercolor="#666666" borderopacity="1" objecttolerance="10" gridtolerance="10" guidetolerance="10" inkscape:pageopacity="0" inkscape:pageshadow="2" inkscape:window-width="1272" inkscape:window-height="1020" id="namedview2987" showgrid="false" fit-margin-left="0.5" fit-margin-bottom="0.5" fit-margin-top="0.5" fit-margin-right="0.5" inkscape:zoom="0.46670108" inkscape:cx="429.63649" inkscape:cy="-164.68533" inkscape:window-x="637" inkscape:window-y="-7" inkscape:window-maximized="0" inkscape:current-layer="g2993"/>
  <g id="g2993" inkscape:groupmode="layer" inkscape:label="20130124-revista-350-anos-web">
   <g id="g4005" inkscape:connector-curvature="0">
    <g id="g4007">
     <g id="g4013">
      <g id="g4015">
       <path id="path4023" fill="#201E1E" d="M548 1587c-13,16 -20,37 -20,60l0 0c0,53 43,96 96,96l0 0 700 0 -448 -581 -328 425z" inkscape:connector-curvature="0"/>
      </g>
     </g>
    </g>
   </g>
   <g id="g4025">
    <g id="g4027">
     <g id="g4033">
      <g id="g4035">
       <path id="path4045" fill="#201E1E" d="M529 582c-66,0 -124,31 -161,79l0 0 -353 459c-9,12 -15,26 -15,42l0 0c0,16 5,31 14,43l0 0 354 458 2 3c36,46 92,76 155,77l0 0 2 0 42 0 55 0c-53,0 -96,-43 -96,-96l0 0c0,-23 7,-44 20,-60l0 0 328 -425 448 -580 -795 0 0 0z" inkscape:connector-curvature="0"/>
      </g>
     </g>
    </g>
   </g>
   <g id="g4047">
    <g id="g4049">
     <g id="g4055">
      <g id="g4057">
       <path id="path4065" fill="#201E1E" d="M1021 1l448 581 327 -425c13,-16 21,-37 21,-60l0 0c0,-53 -43,-96 -97,-96l0 0 -699 0z" inkscape:connector-curvature="0"/>
      </g>
     </g>
    </g>
   </g>
   <g id="g4067">
    <g id="g4069">
     <g id="g4075">
      <g id="g4077">
       <path id="path4087" fill="#201E1E" d="M1776 1l-56 0c54,0 97,43 97,96l0 0c0,23 -8,44 -21,60l0 0 -327 425 -448 580 795 0c65,0 124,-31 161,-79l0 0 353 -458c9,-12 14,-27 14,-43l0 0c0,-16 -5,-31 -14,-42l0 0 -353 -459 -2 -3c-37,-46 -93,-76 -155,-77l0 0c-1,0 -2,0 -3,0l0 0 -41 0 0 0z" inkscape:connector-curvature="0"/>
      </g>
     </g>
    </g>
   </g>
   <g id="g4089">
    <g id="g4097" inkscape:connector-curvature="0">
     <path id="path4099" fill="#201E1E" fill-rule="nonzero" d="M1821 157c13,-16 21,-37 21,-60 0,-53 -43,-96 -97,-96l-25 0c54,0 97,43 97,96 0,23 -8,44 -21,60l-327 425 -448 580 800 -1005z" inkscape:connector-curvature="0"/>
    </g>
    <g id="g4101">
     <path id="path4103" fill="#201E1E" fill-rule="nonzero" d="M523 1587c-12,16 -20,37 -20,60 0,53 43,96 96,96l25 0c-53,0 -96,-43 -96,-96 0,-23 7,-44 20,-60l328 -425 448 -580 -801 1005z" inkscape:connector-curvature="0"/>
    </g>
    <g id="g4105">
     <path id="path4107" fill="#201E1E" fill-rule="nonzero" d="M8300 1202c-33,-15 -74,-24 -120,-36 -67,-16 -130,-20 -153,-56 -21,-34 -9,-73 19,-93 67,-45 157,-27 206,-4 9,3 46,25 46,25 5,3 11,5 17,5 12,0 22,-6 28,-14 1,-2 94,-123 94,-123l-15 -13c-9,-6 -22,-16 -36,-24 -28,-16 -114,-65 -238,-65l-11 0c-273,7 -311,199 -311,267 0,104 53,178 133,224 64,37 185,57 247,76 32,9 56,31 65,53 4,10 6,20 6,30 1,36 -18,77 -71,93 -58,18 -151,11 -235,-55 -2,-2 -12,-9 -15,-11 -4,-1 -8,-2 -13,-2 -12,0 -21,6 -28,16 -1,1 -93,120 -93,120 0,0 32,27 43,35 53,40 148,93 272,93l5 0c262,-1 325,-187 325,-289 0,-105 -64,-206 -167,-252z" inkscape:connector-curvature="0"/>
    </g>
    <g id="g4109">
     <path id="path4111" fill="#201E1E" fill-rule="nonzero" d="M5371 819c-45,0 -82,6 -120,17 -60,19 -107,52 -142,99 -58,77 -57,168 -57,168l0 638 171 0c10,0 19,-9 19,-19l0 -607c0,-13 2,-54 26,-76 19,-17 44,-25 69,-29 28,-4 53,-2 66,0 0,0 3,0 4,0 13,0 24,-7 30,-17l87 -150c-49,-17 -97,-25 -153,-24z" inkscape:connector-curvature="0"/>
    </g>
    <g id="g4113">
     <path id="path4115" fill="#201E1E" fill-rule="nonzero" d="M4867 819c-45,0 -83,6 -121,17 -60,19 -106,52 -142,99 -58,77 -57,168 -57,168l0 638 171 0c10,0 19,-9 19,-19l0 -607c0,-13 2,-54 26,-76 19,-17 44,-25 69,-29 28,-4 53,-2 66,0 0,0 3,0 4,0 13,0 24,-7 30,-17l87 -150c-49,-17 -97,-25 -152,-24z" inkscape:connector-curvature="0"/>
    </g>
    <g id="g4117">
     <path id="path4119" fill="#201E1E" fill-rule="nonzero" d="M3364 1505c-6,-8 -16,-14 -28,-14 -7,0 -13,2 -18,5l-1 0c-58,35 -126,55 -199,55 -214,0 -388,-174 -388,-388 0,-214 174,-389 388,-389 73,0 141,21 199,55 6,4 12,6 19,6 11,0 22,-6 28,-14l97 -126c-96,-71 -215,-112 -343,-112 -320,0 -580,260 -580,580 0,320 260,580 580,580 128,0 247,-41 343,-112l-97 -126z" inkscape:connector-curvature="0"/>
    </g>
    <g id="g4121">
     <g>
      <path id="path4123" fill="#201E1E" fill-rule="nonzero" d="M5966 989c126,0 232,82 270,195l-540 0c37,-113 144,-195 270,-195l0 0zm0 -184c-258,0 -469,210 -469,469 0,255 211,465 469,468l14 0c102,0 183,-14 291,-84l18 -11c0,0 -96,-124 -97,-126 -7,-8 -16,-13 -28,-13 -6,0 -12,1 -17,4 -24,13 -99,47 -181,47 -124,0 -229,-79 -269,-190l642 0 74 0c11,0 20,-9 20,-20l1 -54c0,-7 0,-14 0,-21 0,-259 -210,-469 -468,-469z" inkscape:connector-curvature="0"/>
     </g>
    </g>
    <g id="g4125">
     <path id="path4127" fill="#201E1E" fill-rule="nonzero" d="M6563 1743c-11,0 -20,-8 -20,-19l0 -869c0,-10 9,-19 19,-19l152 0c11,0 20,9 20,20l0 868c0,10 -9,19 -20,19l-151 0z" inkscape:connector-curvature="0" style=""/>
    </g>
    <g id="g4129">
     <g>
      <path id="path4131" fill="#201E1E" fill-rule="nonzero" d="M3966 986c-155,0 -282,127 -282,283 0,156 127,283 282,283 156,0 283,-127 283,-283 0,-156 -127,-283 -283,-283l0 0zm0 757c-261,0 -474,-212 -474,-474 0,-261 213,-474 474,-474 262,0 474,213 474,474 0,262 -212,474 -474,474z" inkscape:connector-curvature="0"/>
     </g>
    </g>
    <g id="g4133">
     <g>
      <path id="path4135" fill="#201E1E" fill-rule="nonzero" d="M7298 993c-155,0 -280,126 -280,280 0,154 125,280 280,280 154,0 280,-126 280,-280 0,-154 -126,-280 -280,-280l0 0zm0 749c-259,0 -469,-211 -469,-469 0,-259 210,-469 469,-469 259,0 469,210 469,469 0,258 -210,469 -469,469z" inkscape:connector-curvature="0" style=""/>
     </g>
    </g>
   </g>
  </g>
 </g>
</svg>