<svg xmlns="http://www.w3.org/2000/svg" xmlns:xlink="http://www.w3.org/1999/xlink" version="1.1" id="Camada_1" x="0px" y="0px" viewBox="0 0 205 40" style="enable-background:new 0 0 205 40;" xml:space="preserve">
<g>
	<path d="M104.12,35.47c0,1.14,0,2.28,0,3.46c-2.39,0-4.72,0-7.04,0c-0.11-0.39-0.16-36.59-0.04-37.66   c2.47-0.25,4.96-0.44,7.52-0.67c0,5.51,0,10.95,0,16.39c0.03,0.01,0.07,0.02,0.1,0.03c0.03-0.05,0.08-0.1,0.1-0.15   c0.58-1.15,1.51-1.95,2.64-2.53c1.83-0.93,3.77-1.15,5.78-0.91c0.85,0.1,1.67,0.3,2.46,0.62c1.97,0.79,3.43,2.15,4.46,3.99   c0.85,1.52,1.33,3.16,1.57,4.87c0.39,2.83,0.31,5.65-0.29,8.45c-0.27,1.25-0.69,2.45-1.33,3.57c-1.42,2.51-3.6,3.94-6.43,4.38   c-1.59,0.24-3.17,0.24-4.74-0.19c-1.89-0.52-3.37-1.59-4.41-3.26c-0.08-0.13-0.17-0.26-0.25-0.38   C104.18,35.46,104.15,35.46,104.12,35.47z M104.58,26.49c-0.01,0-0.02,0-0.03,0c0,0.62-0.02,1.24,0.01,1.86   c0.02,0.51,0.05,1.03,0.17,1.52c0.45,1.83,1.53,3.1,3.41,3.53c0.61,0.14,1.27,0.18,1.89,0.14c1.74-0.12,2.99-1.01,3.66-2.63   c0.2-0.49,0.36-1,0.46-1.52c0.33-1.77,0.3-3.56,0.08-5.34c-0.11-0.92-0.36-1.8-0.8-2.62c-0.6-1.11-1.51-1.81-2.75-2.05   c-0.29-0.06-0.59-0.09-0.89-0.11c-2.45-0.1-4.24,1.14-4.91,3.38c-0.15,0.5-0.24,1.04-0.28,1.56   C104.54,24.96,104.58,25.72,104.58,26.49z" style=""/>
	<path d="M202.72,13.81c-2.65,4.22-5.24,8.33-7.84,12.47c2.69,4.19,5.38,8.37,8.06,12.55c-0.16,0.2-0.35,0.12-0.51,0.12   c-2.32,0.01-4.64-0.01-6.95,0.01c-0.37,0-0.57-0.14-0.75-0.44c-2.36-3.74-4.73-7.48-7.1-11.21c-0.1-0.16-0.21-0.31-0.4-0.43   c0,3.99,0,7.98,0,11.96c-0.41,0.13-6.61,0.18-7.49,0.07c-0.12-0.39-0.19-36.27-0.06-37.65c2.47-0.25,4.97-0.45,7.54-0.67   c0,4.21,0,8.36,0,12.52c0,4.16,0,8.32,0,12.52c0.25-0.06,0.3-0.27,0.39-0.41c2.28-3.65,4.56-7.29,6.83-10.95   c0.21-0.34,0.43-0.47,0.84-0.47c2.28,0.02,4.57,0.01,6.85,0.01C202.27,13.81,202.43,13.81,202.72,13.81z"/>
	<path d="M46.24,38.93c-2.39,0-4.74,0-7.16,0c-0.03-1.16,0-2.31-0.11-3.49c-0.08,0.12-0.17,0.24-0.25,0.37   c-1.37,2.28-3.42,3.42-6.03,3.59c-1.48,0.1-2.94-0.01-4.36-0.46c-2.16-0.69-3.78-2.03-4.9-3.99c-0.83-1.45-1.3-3.02-1.56-4.66   c-0.41-2.62-0.45-5.25-0.01-7.88c0.24-1.46,0.66-2.86,1.36-4.17c1.61-3.04,4.18-4.62,7.58-4.87c1.11-0.08,2.23-0.09,3.32,0.19   c1.97,0.5,3.47,1.62,4.53,3.35c0.1,0.16,0.2,0.33,0.34,0.57c0.13-0.46,0.06-0.85,0.07-1.24c0.01-0.39,0-0.78,0-1.17   c0-0.4,0-0.8,0-1.24c2.42,0,4.78,0,7.18,0C46.24,22.2,46.24,30.54,46.24,38.93z M38.66,26.46C38.65,26.46,38.65,26.46,38.66,26.46   c-0.01-0.81,0.02-1.63-0.02-2.44c-0.04-0.91-0.28-1.78-0.73-2.58c-0.55-0.99-1.37-1.66-2.46-1.97c-0.9-0.26-1.81-0.27-2.73-0.08   c-1.2,0.25-2.1,0.93-2.66,2.01c-0.29,0.56-0.51,1.17-0.66,1.78c-0.4,1.63-0.38,3.3-0.27,4.96c0.06,0.89,0.22,1.75,0.55,2.58   c0.63,1.6,1.77,2.58,3.5,2.79c1.95,0.24,3.57-0.35,4.66-2.06c0.47-0.74,0.76-1.56,0.8-2.45C38.69,28.16,38.66,27.31,38.66,26.46z"/>
	<path d="M176.78,26.5c-0.03,1.77-0.21,3.67-0.82,5.5c-1.24,3.71-3.75,6.05-7.54,6.98c-2.8,0.69-5.62,0.66-8.4-0.08   c-3.85-1.02-6.3-3.5-7.43-7.3c-0.57-1.9-0.73-3.86-0.69-5.83c0.03-1.6,0.22-3.18,0.69-4.71c1.14-3.73,3.56-6.17,7.34-7.19   c2.87-0.77,5.78-0.8,8.66-0.03c3.96,1.06,6.46,3.64,7.57,7.57C176.57,22.88,176.78,24.62,176.78,26.5z M169.35,26.42   c-0.02,0-0.04,0-0.07,0c0-0.6,0.03-1.2-0.01-1.8c-0.04-0.56-0.1-1.13-0.24-1.67c-0.51-1.93-1.67-3.21-3.69-3.56   c-0.48-0.08-0.99-0.1-1.48-0.06c-1.7,0.12-2.96,0.95-3.75,2.47c-0.35,0.68-0.58,1.42-0.61,2.18c-0.06,1.38-0.08,2.76-0.06,4.14   c0.01,1.05,0.22,2.07,0.7,3.02c0.59,1.16,1.51,1.94,2.78,2.29c0.64,0.18,1.29,0.2,1.95,0.14c1.62-0.17,2.87-0.94,3.66-2.38   c0.33-0.59,0.57-1.23,0.63-1.9C169.25,28.33,169.29,27.37,169.35,26.42z"/>
	<path d="M149.33,26.31c0.01,1.92-0.19,3.76-0.76,5.55c-1.21,3.78-3.74,6.18-7.6,7.13c-2.75,0.67-5.51,0.66-8.25-0.04   c-4-1.02-6.53-3.59-7.63-7.56c-0.6-2.15-0.73-4.36-0.59-6.58c0.08-1.29,0.28-2.57,0.67-3.81c1.15-3.71,3.58-6.12,7.33-7.13   c2.87-0.77,5.78-0.8,8.66-0.03c4.03,1.08,6.52,3.73,7.6,7.73C149.19,23.14,149.35,24.74,149.33,26.31z M131.95,26.39   c0.02,0,0.03,0,0.05,0c0,0.6-0.02,1.2,0,1.8c0.04,1.05,0.24,2.07,0.74,3.01c0.49,0.92,1.2,1.62,2.17,2.02   c2.8,1.16,5.77-0.26,6.63-3.16c0.1-0.32,0.18-0.65,0.21-0.98c0.18-1.76,0.17-3.53,0.01-5.29c-0.02-0.25-0.07-0.49-0.13-0.73   c-0.51-1.96-1.64-3.31-3.72-3.67c-0.52-0.09-1.06-0.1-1.58-0.06c-1.51,0.12-2.68,0.83-3.48,2.12c-0.42,0.69-0.69,1.44-0.76,2.24   C132.02,24.58,132,25.49,131.95,26.39z"/>
	<path d="M91.78,32.51c0.48,1.73,0.94,3.41,1.42,5.15c-0.58,0.24-1.11,0.48-1.65,0.68c-1.64,0.58-3.35,0.92-5.08,1.05   c-1.48,0.11-2.97,0.14-4.45,0.12c-1.49-0.01-2.96-0.26-4.39-0.7c-3.47-1.07-5.69-3.37-6.7-6.85c-0.37-1.27-0.56-2.56-0.6-3.87   c-0.06-1.8-0.11-3.61,0.17-5.41c0.32-2.03,0.99-3.91,2.3-5.52c1.33-1.64,3.06-2.67,5.07-3.22c2.8-0.76,5.63-0.83,8.45-0.16   c3.74,0.9,6.05,3.27,7,6.98c0.28,1.1,0.44,2.22,0.45,3.36c0.01,1.5,0.01,3.01,0.01,4.51c0,0.1-0.01,0.21-0.03,0.36   c-5.3,0-10.58,0-15.91,0c0,0.17-0.02,0.29,0,0.41c0.07,0.4,0.15,0.8,0.25,1.19c0.48,1.92,1.74,2.97,3.66,3.28   c1.95,0.31,3.88,0.19,5.8-0.17C88.97,33.46,90.35,33.06,91.78,32.51z M87.08,24.08c0.06-1.22-0.07-2.37-0.59-3.44   c-0.5-1.03-1.31-1.69-2.42-1.99c-0.64-0.17-1.29-0.21-1.95-0.16c-1.96,0.15-3.28,1.16-3.86,3.03c-0.21,0.67-0.29,1.38-0.41,2.08   c-0.03,0.15,0,0.31,0,0.48C80.93,24.08,83.97,24.08,87.08,24.08z" style=""/>
	<path d="M21.1,0.85c0,1.89,0,3.76,0,5.67c-0.2,0.01-0.37,0.02-0.54,0.03c-0.88,0.01-1.77-0.02-2.65,0.02   c-0.49,0.02-0.99,0.1-1.46,0.24c-0.9,0.26-1.42,0.89-1.59,1.81c-0.05,0.26-0.09,0.53-0.09,0.79c-0.01,1.35-0.01,2.69-0.01,4.04   c0,0.1,0.01,0.2,0.03,0.36c2.07,0,4.11,0,6.24,0c-0.19,2.08-0.37,4.09-0.56,6.16c-1.89,0-3.76,0-5.7,0   c-0.03,1.09-0.01,2.13-0.01,3.16c0,1.06,0,2.12,0,3.19c0,1.04,0,2.09,0,3.13s0,2.09,0,3.13c0,1.06,0,2.12,0,3.19   c0,1.04,0,2.08,0,3.15c-2.54,0-5.02,0-7.56,0c0-6.3,0-12.58,0-18.92c-1.74-0.05-3.42,0.01-5.15-0.03c0-2.04,0-4.05,0-6.13   c1.68-0.07,3.37,0.01,5.11-0.04c0.01-0.21,0.02-0.39,0.02-0.58c0-1.38,0-2.76,0.01-4.14C7.2,7.75,7.39,6.46,7.87,5.22   c0.8-2.05,2.31-3.34,4.36-4.05c1.11-0.38,2.26-0.57,3.43-0.64c1.7-0.11,3.39,0.04,5.08,0.23C20.86,0.77,20.98,0.82,21.1,0.85z"/>
	<path d="M67.59,32.47c0.58,1.78,1.15,3.53,1.74,5.33c-0.34,0.19-0.65,0.38-0.99,0.54c-1.1,0.51-2.27,0.79-3.47,0.93   c-2.44,0.29-4.87,0.26-7.28-0.29c-0.99-0.23-1.94-0.56-2.84-1.02c-2.73-1.4-4.31-3.69-5.07-6.61c-0.29-1.12-0.43-2.26-0.49-3.41   c-0.09-2.04-0.08-4.07,0.36-6.08c0.91-4.11,3.36-6.8,7.43-7.9c3.38-0.91,6.79-0.87,10.17,0.06c0.58,0.16,1.12,0.43,1.67,0.66   c0.17,0.07,0.33,0.19,0.53,0.31c-0.58,1.8-1.15,3.58-1.73,5.41c-0.18-0.07-0.32-0.12-0.46-0.18c-1.5-0.65-3.06-1.02-4.69-0.98   c-0.66,0.02-1.35,0.11-1.99,0.29c-2.1,0.59-3.3,2.03-3.69,4.15c-0.08,0.45-0.11,0.91-0.12,1.37c-0.02,0.96-0.03,1.91,0.01,2.87   c0.03,0.61,0.11,1.24,0.28,1.83c0.65,2.22,2.19,3.44,4.44,3.81c1.97,0.32,3.83-0.16,5.64-0.88C67.23,32.62,67.39,32.55,67.59,32.47   z" style=""/>
</g>
</svg>