<svg width="141" height="36" viewBox="0 0 141 36" fill="none" xmlns="http://www.w3.org/2000/svg">
<path d="M18 4.473C22.4055 4.473 22.9275 4.4895 24.6675 4.569C25.7135 4.58163 26.7496 4.77393 27.7305 5.1375C28.4473 5.40202 29.0957 5.82387 29.628 6.372C30.1761 6.90429 30.598 7.55269 30.8625 8.2695C31.2261 9.25039 31.4184 10.2865 31.431 11.3325C31.5105 13.0725 31.527 13.5945 31.527 18C31.527 22.4055 31.5105 22.9275 31.431 24.6675C31.4184 25.7135 31.2261 26.7496 30.8625 27.7305C30.588 28.4422 30.1675 29.0886 29.6281 29.6281C29.0886 30.1675 28.4422 30.588 27.7305 30.8625C26.7496 31.2261 25.7135 31.4184 24.6675 31.431C22.9275 31.5105 22.4055 31.527 18 31.527C13.5945 31.527 13.0725 31.5105 11.3325 31.431C10.286 31.4185 9.24937 31.2262 8.268 30.8625C7.55173 30.5978 6.90386 30.1759 6.372 29.628C5.82387 29.0957 5.40202 28.4473 5.1375 27.7305C4.77393 26.7496 4.58163 25.7135 4.569 24.6675C4.4895 22.9275 4.473 22.4055 4.473 18C4.473 13.5945 4.4895 13.0725 4.569 11.3325C4.58163 10.2865 4.77393 9.25039 5.1375 8.2695C5.40202 7.55269 5.82387 6.90429 6.372 6.372C6.90429 5.82387 7.55269 5.40202 8.2695 5.1375C9.25039 4.77393 10.2865 4.58163 11.3325 4.569C13.0725 4.4895 13.5945 4.473 18 4.473ZM18 1.5C13.5195 1.5 12.957 1.5195 11.1975 1.599C9.82877 1.62631 8.47458 1.88548 7.1925 2.3655C6.091 2.78022 5.09328 3.43035 4.269 4.2705C3.42957 5.09449 2.77997 6.09167 2.3655 7.1925C1.88599 8.47467 1.62733 9.82886 1.6005 11.1975C1.518 12.957 1.5 13.5195 1.5 18C1.5 22.4805 1.5195 23.043 1.599 24.8025C1.62631 26.1712 1.88548 27.5254 2.3655 28.8075C2.78022 29.909 3.43035 30.9067 4.2705 31.731C5.09449 32.5704 6.09167 33.22 7.1925 33.6345C8.47467 34.114 9.82886 34.3727 11.1975 34.3995C12.957 34.482 13.5195 34.5 18 34.5C22.4805 34.5 23.043 34.4805 24.8025 34.401C26.1712 34.3737 27.5254 34.1145 28.8075 33.6345C29.9039 33.2106 30.8997 32.5622 31.731 31.731C32.5622 30.8997 33.2106 29.9039 33.6345 28.8075C34.114 27.5253 34.3727 26.1711 34.3995 24.8025C34.482 23.043 34.5 22.4805 34.5 18C34.5 13.5195 34.4805 12.957 34.401 11.1975C34.3737 9.82877 34.1145 8.47458 33.6345 7.1925C33.2198 6.091 32.5697 5.09328 31.7295 4.269C30.9055 3.42957 29.9083 2.77997 28.8075 2.3655C27.5253 1.88599 26.1711 1.62733 24.8025 1.6005C23.043 1.518 22.4805 1.5 18 1.5ZM18 9.5265C16.3241 9.5265 14.6858 10.0235 13.2924 10.9545C11.8989 11.8856 10.8128 13.209 10.1715 14.7573C9.53017 16.3057 9.36236 18.0094 9.68932 19.6531C10.0163 21.2968 10.8233 22.8066 12.0083 23.9917C13.1934 25.1767 14.7032 25.9837 16.3469 26.3107C17.9906 26.6376 19.6943 26.4698 21.2427 25.8285C22.791 25.1872 24.1144 24.1011 25.0455 22.7076C25.9765 21.3142 26.4735 19.6759 26.4735 18C26.4735 15.7527 25.5808 13.5974 23.9917 12.0083C22.4026 10.4192 20.2473 9.5265 18 9.5265ZM18 23.5005C16.9121 23.5005 15.8486 23.1779 14.9441 22.5735C14.0395 21.9691 13.3345 21.11 12.9182 20.1049C12.5019 19.0999 12.393 17.9939 12.6052 16.9269C12.8174 15.8599 13.3413 14.8798 14.1106 14.1106C14.8798 13.3413 15.8599 12.8174 16.9269 12.6052C17.9939 12.393 19.0999 12.5019 20.1049 12.9182C21.11 13.3345 21.9691 14.0395 22.5735 14.9441C23.1779 15.8486 23.5005 16.9121 23.5005 18C23.5005 19.4588 22.921 20.8579 21.8894 21.8894C20.8579 22.921 19.4588 23.5005 18 23.5005ZM26.808 7.212C26.4164 7.212 26.0336 7.32812 25.708 7.54569C25.3824 7.76325 25.1286 8.07249 24.9787 8.43429C24.8289 8.79608 24.7896 9.1942 24.866 9.57828C24.9424 9.96236 25.131 10.3152 25.4079 10.5921C25.6848 10.869 26.0376 11.0576 26.4217 11.134C26.8058 11.2104 27.2039 11.1711 27.5657 11.0213C27.9275 10.8714 28.2367 10.6176 28.4543 10.292C28.6719 9.96642 28.788 9.58361 28.788 9.192C28.788 8.66687 28.5794 8.16325 28.2081 7.79193C27.8367 7.42061 27.3331 7.212 26.808 7.212Z" fill="#242424"/>
<g clip-path="url(#clip0_57_508)">
<path fill-rule="evenodd" clip-rule="evenodd" d="M44.2728 7.09446C42.1703 7.97352 39.8684 10.4476 39.1434 13.556C38.2191 17.4891 42.0525 19.1476 42.3697 18.6038C42.7322 17.9695 41.6809 17.752 41.4634 15.7038C41.1916 13.0757 42.415 10.1213 43.9556 8.83446C44.2456 8.58977 44.2275 8.92508 44.2275 9.54133L44.1731 22.6457C44.1731 25.4551 44.0553 26.3341 43.8469 27.2132C43.6384 28.1013 43.3031 28.6995 43.5478 28.9351C43.8378 29.1888 45.0703 28.5726 45.7772 27.5757C46.5849 26.3438 47.0047 24.898 46.9825 23.4251C47.0459 21.5582 47.0369 18.5948 47.0459 16.9091C47.0459 15.3685 47.0731 10.8282 47.0188 8.10039C47.0006 7.42977 45.1428 6.73196 44.2728 7.10352V7.09446ZM118.703 20.217C118.674 21.3926 118.403 22.5496 117.906 23.6154C117.135 25.1741 115.522 25.6545 114.833 23.416C114.471 22.2016 114.444 20.1626 114.716 18.4588C114.988 16.737 115.749 15.4229 117.008 15.5407C118.259 15.6585 118.839 17.2626 118.703 20.217ZM97.7234 29.2613C97.7053 31.681 97.3247 33.8016 96.5091 34.427C95.34 35.297 93.7903 34.6354 94.1075 32.8682C94.3884 31.3095 95.7388 29.7145 97.7325 27.757L97.7234 29.2613ZM97.4063 20.1988C97.3532 21.3771 97.0829 22.5354 96.6088 23.6154C95.8384 25.1741 94.2163 25.6545 93.5366 23.416C93.0834 21.8845 93.1922 19.9088 93.4188 18.6582C93.7178 17.0451 94.4338 15.5407 95.7116 15.5407C96.9622 15.5407 97.5784 16.9001 97.4063 20.1988ZM85.2534 20.1807C85.2305 21.3707 84.9621 22.543 84.465 23.6245C83.6675 25.1651 82.0816 25.6545 81.3838 23.416C80.8853 21.812 81.0575 19.6098 81.2659 18.4316C81.5741 16.6645 82.3534 15.4229 83.5588 15.5316C84.8094 15.6585 85.4075 17.2535 85.2534 20.1807ZM140.943 21.821C140.643 21.821 140.498 22.1382 140.39 22.6638C139.991 24.4945 139.574 24.9113 139.03 24.9113C138.432 24.9113 137.888 24.0051 137.743 22.1926C137.635 20.7607 137.653 18.1326 137.798 15.5135C137.825 14.9788 137.671 14.4532 136.23 13.9276C135.614 13.701 134.708 13.3657 134.263 14.4532C133.366 16.5224 132.733 18.6964 132.378 20.9238C132.378 20.9782 132.306 20.9873 132.288 20.8695C132.224 20.081 132.052 18.6401 132.034 15.6223C132.034 15.0332 131.907 14.5348 131.255 14.127C130.829 13.8551 129.551 13.3929 129.08 13.9457C128.69 14.3988 128.228 15.6404 127.747 17.0995L127.077 19.0932L127.086 14.6707C127.086 14.2176 126.778 14.0635 126.678 14.0363C126.146 13.8723 125.6 13.76 125.047 13.701C124.612 13.701 124.503 13.9457 124.503 14.3082C124.503 14.3535 124.431 18.5223 124.431 21.4404V21.8573C124.186 23.1985 123.398 25.0201 122.537 25.0201C121.676 25.0201 121.268 24.2588 121.268 20.7788C121.268 18.7488 121.331 17.8698 121.358 16.4016C121.377 15.5498 121.413 14.9063 121.413 14.7613C121.404 14.3082 120.624 14.0816 120.262 13.991C119.899 13.9095 119.573 13.8732 119.328 13.8913C118.966 13.9095 118.721 14.136 118.721 14.4532V14.9516C118.33 14.333 117.748 13.8589 117.063 13.6013C115.758 13.2116 114.398 13.556 113.374 14.9879C112.49 16.2523 111.97 17.7349 111.87 19.2745C111.725 20.6338 111.779 22.0023 112.024 23.1713C111.725 24.4763 111.154 25.0201 110.538 25.0201C109.641 25.0201 108.997 23.552 109.07 21.0326C109.124 19.3651 109.45 18.196 109.813 16.5104C109.967 15.7854 109.849 15.4229 109.532 15.0604C109.242 14.7251 108.626 14.5529 107.728 14.7613C107.094 14.9063 106.188 15.0695 105.372 15.1873C105.372 15.1873 105.418 14.997 105.463 14.6435C105.671 12.8038 103.668 12.9488 103.025 13.5379C102.644 13.8913 102.391 14.2991 102.282 15.0513C102.128 16.2295 103.098 16.7823 103.098 16.7823C102.475 19.1346 101.431 21.3545 100.016 23.3345V22.7001C100.007 19.6551 100.043 17.2626 100.062 16.4016C100.08 15.5498 100.116 14.9245 100.116 14.7704C100.116 14.4441 99.9166 14.3173 99.5178 14.1632C99.1553 14.0182 98.7384 13.9276 98.3034 13.8913C97.7597 13.846 97.4244 14.136 97.4334 14.4804V14.9516C97.0405 14.331 96.4547 13.8566 95.7659 13.6013C94.4609 13.2116 93.1016 13.556 92.0775 14.9879C91.2252 16.265 90.7079 17.736 90.5731 19.2654C90.4372 20.6882 90.4553 21.8935 90.6547 22.9266C90.4463 23.9507 89.8481 25.011 89.1775 25.011C88.3166 25.011 87.8181 24.2588 87.8181 20.7788C87.8181 18.7488 87.8816 17.8698 87.9088 16.4016C87.9269 15.5498 87.9631 14.9063 87.9631 14.7613C87.9631 14.3082 87.1747 14.0816 86.8122 13.991C86.4316 13.9004 86.0963 13.8732 85.8516 13.9004C85.5163 13.9185 85.2806 14.2176 85.2806 14.4441V14.9516C84.8877 14.331 84.3019 13.8566 83.6131 13.6013C82.3081 13.2116 80.9578 13.5651 79.9247 14.9879C79.245 15.9213 78.7013 16.9545 78.4203 19.2473C78.3442 19.8605 78.3079 20.4781 78.3116 21.096C78.0397 22.7363 76.8525 24.6304 75.8828 24.6304C75.3119 24.6304 74.7681 23.5338 74.7681 21.1866C74.7681 18.0601 74.9675 13.6104 74.9947 13.1845L76.4628 13.1573C77.0791 13.1573 77.6319 13.1663 78.4475 13.121C78.8553 13.1029 79.245 11.6348 78.8281 11.4535C78.6378 11.372 77.2875 11.2995 76.7438 11.2904C76.2906 11.2813 75.04 11.1907 75.04 11.1907C75.04 11.1907 75.1578 8.23633 75.185 7.92821C75.2031 7.65633 74.8678 7.52946 74.6684 7.44789C74.2211 7.26785 73.7565 7.13424 73.2819 7.04914C72.5931 6.91321 72.285 7.04914 72.2216 7.62914C72.1309 8.50821 72.0856 11.091 72.0856 11.091C71.5781 11.091 69.8472 10.9913 69.3488 10.9913C68.8775 10.9913 68.37 13.0032 69.0225 13.0304L71.9225 13.112L71.8953 19.0298V19.4557C71.415 21.9298 69.7475 23.262 69.7475 23.262C70.11 21.6307 69.3669 20.4073 68.0528 19.3651C67.5634 18.9845 66.6028 18.2595 65.5244 17.462C65.5244 17.462 66.1497 16.8457 66.7025 15.6132C67.0922 14.7432 67.1103 13.7463 66.1497 13.5288C64.5638 13.1573 63.2497 14.3173 62.86 15.5679C62.7079 15.9727 62.6698 16.4115 62.7497 16.8365C62.8296 17.2615 63.0245 17.6565 63.3131 17.9785L63.4491 18.1507C63.0866 18.8395 62.5972 19.7638 62.1803 20.4888C61.0294 22.4826 60.1503 24.0685 59.4888 24.0685C58.9631 24.0685 58.9722 22.4645 58.9722 20.9601C58.9722 19.6641 59.0628 17.7157 59.1444 15.7038C59.1716 15.0332 58.8363 14.6526 58.2744 14.3082C57.8276 13.9991 57.3215 13.7862 56.7881 13.6829C56.1538 13.6829 54.3413 13.7735 52.6194 18.7307C52.4109 19.356 51.985 20.4888 51.985 20.4888L52.0213 14.5348C52.0213 14.3898 51.9488 14.2629 51.7766 14.1723C51.2357 13.8848 50.639 13.7178 50.0275 13.6829C49.7013 13.6829 49.5381 13.837 49.5381 14.136L49.4747 23.4704C49.4747 24.1773 49.4928 25.002 49.5653 25.3645C49.6378 25.727 49.7466 26.017 49.8916 26.1891C50.0275 26.3704 50.1906 26.4973 50.4534 26.5516C50.7072 26.606 52.0666 26.7782 52.1391 26.2616C52.2297 25.6363 52.2297 24.9657 52.9456 22.4554C54.0513 18.5495 55.5013 16.6373 56.19 15.9666C56.3078 15.8398 56.4438 15.8398 56.4347 16.0301L56.2353 20.8513C56.0541 25.7179 56.9422 26.6151 58.2019 26.6151C59.1716 26.6151 60.54 25.6545 62.0081 23.2257L64.455 19.1476L65.8869 20.4707C67.0469 21.5582 67.4275 22.6095 67.1738 23.5973C66.9834 24.3495 66.2494 25.1379 64.9625 24.3766C64.5819 24.1501 64.4188 23.9779 64.0472 23.7332C63.8388 23.5973 63.5306 23.552 63.3403 23.697C62.86 24.0595 62.5791 24.5307 62.425 25.1016C62.2709 25.6545 62.8328 25.9535 63.4128 26.2073C63.9113 26.4338 64.9897 26.6332 65.6784 26.6604C68.3428 26.751 70.4816 25.3735 71.9678 21.821C72.2397 24.8841 73.3725 26.6241 75.3391 26.6241C76.6531 26.6241 77.9763 24.9204 78.5563 23.2529C78.7194 23.9326 78.9641 24.5216 79.2813 25.0291C80.8038 27.4307 83.7491 26.9051 85.2263 24.866C85.6794 24.2407 85.7519 24.0141 85.7519 24.0141C85.7961 24.7003 86.0928 25.3457 86.5848 25.826C87.0768 26.3063 87.7293 26.5874 88.4163 26.6151C89.4131 26.6151 90.4372 26.1438 91.1622 24.5216C91.2438 24.7029 91.3434 24.866 91.4341 25.0291C92.9566 27.4307 95.9019 26.9051 97.3791 24.866L97.5603 24.6123L97.6056 25.881L96.2463 27.1226C93.9625 29.207 92.2225 30.7929 92.0956 32.6416C91.9325 34.9979 93.8447 35.8679 95.2947 35.9857C96.0199 36.0218 96.7417 35.8636 97.3853 35.5274C98.029 35.1913 98.5712 34.6893 98.9559 34.0735C99.6628 33.0313 100.134 30.7838 100.098 28.5635L100.043 25.3373C102.214 22.827 103.882 19.9226 104.955 16.7823C104.955 16.7823 105.798 16.7913 106.695 16.737C106.985 16.7188 107.067 16.7732 107.013 16.9816C106.949 17.2354 105.88 21.3679 106.858 24.1229C107.529 26.0079 109.033 26.6151 109.94 26.6151C110.982 26.6151 111.988 25.8266 112.523 24.6485L112.731 25.0291C114.253 27.4307 117.19 26.9051 118.676 24.866C119.011 24.4129 119.202 24.0141 119.202 24.0141C119.528 26.0079 121.078 26.6241 121.966 26.6241C122.89 26.6241 123.778 26.2435 124.485 24.5579C124.512 25.301 124.558 25.9082 124.63 26.0985C124.675 26.2163 124.938 26.3704 125.138 26.4338C125.98 26.742 126.841 26.597 127.168 26.5335C127.385 26.4882 127.557 26.307 127.584 25.8538C127.648 24.6485 127.612 22.6276 127.974 21.1323C128.581 18.6038 129.152 17.6251 129.424 17.1448C129.578 16.8729 129.75 16.8276 129.759 17.1176C129.768 17.6976 129.796 19.4013 130.031 21.6941C130.213 23.3798 130.448 24.3766 130.62 24.6848C131.137 25.591 131.771 25.6363 132.279 25.6363C132.605 25.6363 133.294 25.5457 133.23 24.9748C133.203 24.6938 133.248 22.9629 133.865 20.4798C134.254 18.8576 134.907 17.3985 135.143 16.8548C135.233 16.6645 135.278 16.8185 135.278 16.8548C135.224 17.9604 135.115 21.6126 135.568 23.6154C136.185 26.316 137.97 26.6241 138.595 26.6241C139.927 26.6241 141.015 25.6091 141.378 22.9538C141.468 22.3195 141.332 21.821 140.943 21.821Z" fill="#242424"/>
</g>
<defs>
<clipPath id="clip0_57_508">
<rect width="103" height="29" fill="white" transform="translate(38 7)"/>
</clipPath>
</defs>
</svg>
