<svg width="160" height="30" fill="none" xmlns="http://www.w3.org/2000/svg"><path d="M147.567 7.96936h3.539l6.274 10.53734h.229l-.229-1.8676V7.96936H160V22.0257h-3.538l-6.274-10.5373h-.23l.23 1.8676v8.6697h-2.621V7.96936ZM137.43 7.5c4.437 0 7.632 3.2831 7.632 7.4902 0 4.207-3.195 7.4901-7.632 7.4901-4.438 0-7.632-3.2831-7.632-7.4901 0-4.2071 3.175-7.4902 7.632-7.4902Zm0 12.405c2.85 0 4.896-2.1036 4.896-4.9148 0-2.8113-2.046-4.9148-4.896-4.9148s-4.897 2.1035-4.897 4.9148c0 2.8112 2.047 4.9148 4.897 4.9148ZM124.653 7.96936h2.62V22.0257h-2.62V7.96936Zm-14.25 0h12.432v2.57534h-4.896v11.481h-2.621v-11.481h-4.915V7.96936Zm-9.697 0h6.197l3.844 14.05634h-2.62l-.918-3.401h-6.848l-.9179 3.401h-2.6204l3.8833-14.05634Zm5.833 8.09964-1.472-5.5046h-2.506l-1.473 5.5046h5.451ZM84.7722 7.96936h12.4327v2.57534h-4.8965v11.481h-2.6205v-11.481h-4.9157V7.96936ZM74.6154 17.8211c.1148.4128.3252.806.6121 1.1206.5164.5701 1.3772 1.1009 2.9265 1.1009 2.2761 0 3.1942-.9437 3.1942-1.8676 0-1.4941-2.2187-1.848-4.4375-2.3395-2.2379-.4915-4.4375-1.4548-4.4375-4.1088 0-2.22146 1.9318-4.2267 5.5851-4.2267 2.5631 0 4.0359 1.0616 4.8775 2.10354.4973.62906.8416 1.33686 1.052 2.10356h-2.7352c-.1148-.2949-.2869-.6095-.5738-.865-.4591-.4522-1.2624-.8847-2.6205-.8847-2.0657 0-2.8499.7077-2.8499 1.6317 0 1.0616 1.2624 1.5531 2.8117 1.8676 2.6204.5308 6.0825 1.1993 6.0825 4.561 0 2.3394-2.0275 4.443-5.9295 4.443-2.8882 0-4.514-1.1403-5.3748-2.3395-.4973-.688-.8416-1.4744-.9946-2.3394h2.8117v.0393Zm-7.7844-2.8309c0-4.3447-3.4238-7.4902-8.1674-7.4902H52.562v15h6.1016c4.7245-.0197 8.1674-3.1651 8.1674-7.5098Zm-9.9271 3.6959v-7.3919h1.645c2.2761 0 3.7107 1.4155 3.7107 3.696 0 2.2804-1.4155 3.6959-3.7107 3.6959h-1.645Zm-9.143-1.4941c.4591-.2162.8799-.5505 1.2624-.9633.8607-.9043 1.2815-2.0249 1.2815-3.3421 0-3.18476-2.4291-5.3866-5.8912-5.3866h-7.8422v15h4.3419v-4.325h2.6587l2.3718 4.325h4.3802l-2.8309-5.1704.2678-.1376Zm-3.7681-2.6147h-3.0603v-3.401h3.0603c1.0712 0 1.8745.7274 1.8745 1.6907 0 .9829-.8033 1.7103-1.8745 1.7103Zm-29.37 7.1876 14.6343 5.5526v-4.9786l-14.6343-5.5525L0 22.3389v4.9786l14.6228-5.5526Z" fill="#000"></path><path d="M14.6228 21.765 0 27.3175 5.42774 30l9.19506-3.4908L23.8294 30l5.4277-2.6825-14.6343-5.5525Z" fill="#19C1CE"></path><path d="M14.6228 8.2351 0 2.68253v4.97853l14.6228 5.55254 14.6343-5.55254V2.68253L14.6228 8.2351Z" fill="#000"></path><path d="m14.6228 8.2351 14.6343-5.55257L23.8294 0l-9.2066 3.49086L5.42774 0 0 2.68253 14.6228 8.2351Z" fill="#19C1CE"></path></svg>