<svg width="608" height="173" viewBox="0 0 608 173" fill="none" xmlns="http://www.w3.org/2000/svg">
<g clip-path="url(#clip0_135_2)">
<path d="M130.7 32.9C130.6 32 129.8 31.6 129.2 31.5C128.6 31.4 116.6 31.3 116.6 31.3C116.6 31.3 106.5 21.5 105.5 20.5C104.5 19.5 102.6 19.8 101.8 20C101.8 20 99.9 20.6 96.7 21.6C96.2 19.9 95.4 17.8 94.3 15.7C90.7 8.80004 85.5 5.20004 79.1 5.20004C78.7 5.20004 78.2 5.20004 77.8 5.30004C77.6 5.10004 77.4 4.90004 77.2 4.60004C74.4 1.60004 70.9 0.20004 66.7 0.30004C58.5 0.50004 50.4 6.40004 43.7 17C39 24.4 35.5 33.7 34.5 40.9C25.1 43.8 18.5 45.8 18.4 45.9C13.7 47.4 13.5 47.5 12.9 52C12.4 55.3 0 151.4 0 151.4L104.1 169.4L149.2 158.2C149.2 158.2 130.8 33.7 130.7 32.9ZM91.5 23.2C89.1 23.9 86.4 24.8 83.4 25.7C83.3 21.6 82.8 15.8 80.9 10.8C87.2 12 90.2 19 91.5 23.2ZM78 27.4C72.5 29.1 66.6 30.9 60.6 32.8C62.3 26.4 65.5 20 69.4 15.8C70.9 14.2 72.9 12.5 75.3 11.5C77.6 16.2 78 22.9 78 27.4ZM66.8 5.80004C68.7 5.80004 70.3 6.20004 71.7 7.10004C69.5 8.20004 67.3 9.90004 65.3 12.1C60.1 17.7 56.1 26.3 54.5 34.7C49.5 36.2 44.7 37.7 40.2 39.1C43.2 25.9 54.2 6.20004 66.8 5.80004Z" fill="#95BF47"/>
<path d="M129.2 31.5C128.6 31.4 116.6 31.3 116.6 31.3C116.6 31.3 106.5 21.5 105.5 20.5C105.1 20.1 104.6 19.9 104.1 19.9V169.4L149.2 158.2C149.2 158.2 130.8 33.8 130.7 32.9C130.5 32 129.8 31.6 129.2 31.5Z" fill="#5E8E3E"/>
<path d="M79.1002 54.7L73.9002 74.3C73.9002 74.3 68.1002 71.6 61.1002 72.1C50.9002 72.7 50.8002 79.1 50.9002 80.8C51.5002 89.6 74.5002 91.5 75.8002 112C76.8002 128.2 67.2002 139.2 53.4002 140.1C36.8002 141.1 27.7002 131.4 27.7002 131.4L31.2002 116.5C31.2002 116.5 40.4002 123.4 47.7002 123C52.5002 122.7 54.2002 118.8 54.0002 116C53.3002 104.6 34.5002 105.2 33.3002 86.5C32.3002 70.7 42.7002 54.7 65.6002 53.2C74.6002 52.4 79.1002 54.7 79.1002 54.7Z" fill="white"/>
<path d="M210.3 96.5C205.1 93.7 202.4 91.3 202.4 88C202.4 83.8 206.1 81.1 212 81.1C218.8 81.1 224.8 83.9 224.8 83.9L229.6 69.3C229.6 69.3 225.2 65.9 212.3 65.9C194.3 65.9 181.8 76.2 181.8 90.7C181.8 98.9 187.6 105.2 195.4 109.7C201.7 113.3 203.9 115.8 203.9 119.6C203.9 123.5 200.8 126.6 194.9 126.6C186.2 126.6 178 122.1 178 122.1L172.9 136.7C172.9 136.7 180.5 141.8 193.2 141.8C211.7 141.8 225 132.7 225 116.3C225.1 107.4 218.4 101.1 210.3 96.5ZM284.1 65.7C275 65.7 267.8 70 262.3 76.6L262 76.5L269.9 35.1H249.3L229.3 140.4H249.9L256.8 104.4C259.5 90.8 266.5 82.4 273.1 82.4C277.7 82.4 279.5 85.5 279.5 90C279.5 92.8 279.2 96.3 278.6 99.1L270.8 140.3H291.4L299.5 97.7C300.4 93.2 301 87.8 301 84.3C301 72.8 294.8 65.7 284.1 65.7ZM347.6 65.7C322.8 65.7 306.4 88.1 306.4 113.1C306.4 129.1 316.3 141.9 334.8 141.9C359.1 141.9 375.6 120.1 375.6 94.5C375.5 79.8 366.8 65.7 347.6 65.7ZM337.4 126.1C330.4 126.1 327.4 120.1 327.4 112.7C327.4 100.9 333.5 81.6 344.7 81.6C352 81.6 354.4 87.9 354.4 94C354.4 106.7 348.3 126.1 337.4 126.1ZM428.2 65.7C414.3 65.7 406.4 77.9 406.4 77.9H406.1L407.3 66.8H389.1C388.2 74.3 386.6 85.6 384.9 94.1L370.6 169.5H391.2L396.9 139H397.3C397.3 139 401.5 141.7 409.4 141.7C433.6 141.7 449.4 116.9 449.4 91.8C449.5 78.1 443.3 65.7 428.2 65.7ZM408.5 126.4C403.1 126.4 400 123.4 400 123.4L403.4 104.1C405.8 91.3 412.5 82.7 419.7 82.7C426 82.7 427.9 88.5 427.9 94.1C427.9 107.4 420 126.4 408.5 126.4ZM478.9 36.2C472.3 36.2 467.1 41.4 467.1 48.2C467.1 54.3 471 58.5 476.8 58.5H477.1C483.5 58.5 489.1 54.2 489.2 46.5C489.2 40.5 485.2 36.2 478.9 36.2ZM450.1 140.4H470.7L484.7 67.4H463.9L450.1 140.4ZM537.1 67.2H522.8L523.5 63.8C524.7 56.8 528.9 50.5 535.7 50.5C539.4 50.5 542.3 51.5 542.3 51.5L546.3 35.4C546.3 35.4 542.7 33.6 535.1 33.6C527.8 33.6 520.5 35.7 514.9 40.5C507.9 46.5 504.6 55.1 502.9 63.8L502.3 67.2H492.7L489.7 82.7H499.3L488.4 140.4H509L519.9 82.7H534.1L537.1 67.2ZM586.7 67.4C586.7 67.4 573.8 99.9 568 117.6H567.7C567.3 111.9 562.6 67.4 562.6 67.4H541L553.4 134.5C553.7 136 553.5 136.9 553 137.9C550.6 142.5 546.6 147 541.8 150.3C537.9 153.1 533.6 154.9 530.1 156.1L535.8 173.6C540 172.7 548.6 169.3 556 162.4C565.4 153.6 574.1 140 583 121.5L608.2 67.4H586.7Z" fill="#242424"/>
</g>
<defs>
<clipPath id="clip0_135_2">
<rect width="608" height="173.7" fill="white"/>
</clipPath>
</defs>
</svg>
