<svg xmlns="http://www.w3.org/2000/svg" xmlns:xlink="http://www.w3.org/1999/xlink" version="1.0" id="Camada_1" x="0px" y="0px" viewBox="0 0 415 122" style="enable-background:new 0 0 415 122;" xml:space="preserve">
<g>
	<path d="M0.44,58.13c0.12-0.66,0.31-1.31,0.36-1.97C2.4,35.77,14.43,17.28,32.81,7.44c6.54-3.5,13.49-5.74,20.85-6.66   c32.03-4.03,60.17,16.98,67.08,46.4c1.54,6.55,1.98,13.17,1.34,19.86c-2.49,26.02-21.47,47.61-47,53.48   c-2.79,0.64-5.62,1.09-8.48,1.3c-0.3,0.02-0.59,0.11-0.88,0.17c-2.83,0-5.66,0-8.49,0c-0.33-0.06-0.65-0.14-0.98-0.18   c-1.37-0.16-2.75-0.26-4.11-0.48c-8.32-1.31-16.05-4.2-23.19-8.69C12.85,102.51,2.26,85.03,0.8,66.16   c-0.05-0.66-0.24-1.31-0.36-1.97C0.44,62.17,0.44,60.15,0.44,58.13z M81.09,79.94c0.1,0.03,0.19,0.07,0.29,0.09   c4.94,1.05,9.87,2.13,14.82,3.11c1.78,0.35,3.6,0.48,5.41,0.64c0.95,0.08,1.12-0.05,1.39-0.96c0.31-1.06,0.57-2.15,0.73-3.24   c0.69-4.57,0.87-9.18,0.97-13.79c0.17-7.71,0.12-15.42-0.59-23.11c-0.2-2.17-0.63-4.32-0.96-6.48c-0.19-1.25-0.89-2.05-2.09-2.47   c-2.29-0.8-4.53-1.73-6.84-2.45c-13.18-4.1-26.56-7.48-40.08-10.25c-2.86-0.59-5.78-0.95-8.68-1.31c-1.57-0.2-1.74,0.02-2.16,1.56   c-0.09,0.32-0.18,0.65-0.23,0.98c-0.27,2-0.64,3.99-0.76,6c-0.25,3.93-0.36,7.87-0.54,11.8c-0.02,0.37-0.06,0.73-0.09,1.1   c-5.4-1.12-10.8-2.26-16.21-3.34c-1.35-0.27-2.73-0.37-4.11-0.47c-1.08-0.08-1.26,0.08-1.6,1.13c-0.22,0.7-0.39,1.43-0.52,2.15   c-0.62,3.45-0.82,6.95-0.97,10.45c-0.39,8.96-0.35,17.91,0.4,26.85c0.19,2.31,0.64,4.59,0.96,6.89c0.19,1.33,0.91,2.18,2.19,2.62   c2.26,0.78,4.47,1.7,6.74,2.41c13.8,4.29,27.79,7.81,41.96,10.63c2.31,0.46,4.66,0.71,6.99,1c1.26,0.15,1.53-0.08,1.91-1.26   c0.11-0.35,0.2-0.71,0.28-1.07c0.6-2.81,0.85-5.66,0.99-8.52C80.87,87.07,80.96,83.5,81.09,79.94z"/>
	<path d="M251.78,60.84c-0.08,3.13-0.1,6.26-0.27,9.39c-0.18,3.31-0.85,6.54-2.03,9.64c-2.73,7.16-7.77,11.88-15.15,13.94   c-6.55,1.82-13.14,1.76-19.61-0.36c-7.43-2.43-12.12-7.63-14.51-14.99c-0.97-3-1.56-6.08-1.61-9.22c-0.09-5.59-0.12-11.18,0-16.77   c0.09-3.89,0.87-7.69,2.36-11.31c2.75-6.68,7.57-11.12,14.5-13.16c6.32-1.86,12.71-1.88,19.04-0.06c7.82,2.25,12.86,7.43,15.4,15.1   c1.25,3.78,1.71,7.68,1.78,11.63c0.04,2.05,0.01,4.11,0.01,6.16C251.72,60.84,251.75,60.84,251.78,60.84z M214.12,60.86   c-0.03,0-0.05,0-0.08,0c0,1.72-0.04,3.43,0.01,5.15c0.05,1.68,0.12,3.36,0.29,5.03c0.2,1.98,0.7,3.91,1.65,5.68   c1.26,2.36,3.18,3.86,5.8,4.47c2.03,0.47,4.08,0.5,6.11,0.11c3.1-0.58,5.33-2.31,6.63-5.2c0.33-0.73,0.6-1.5,0.82-2.27   c0.55-1.92,0.81-3.89,0.82-5.88c0.02-4.75,0.02-9.49,0-14.24c-0.01-1.01-0.11-2.02-0.24-3.02c-0.25-1.91-0.69-3.77-1.57-5.5   c-1.27-2.49-3.25-4.06-5.98-4.71c-1.53-0.36-3.07-0.43-4.62-0.32c-4.37,0.33-7.25,2.58-8.62,6.75c-0.62,1.9-0.97,3.86-1.02,5.85   C214.07,55.47,214.12,58.16,214.12,60.86z" style=""/>
	<path d="M316.04,27.45c1.89,0,3.77,0,5.66,0c1.47,0,2.08,0.49,2.39,1.92c1.42,6.51,2.83,13.02,4.24,19.53   c2.31,10.65,4.61,21.31,6.91,31.96c0.23,1.06,0.48,1.35,1.18,1.39c0.72,0.04,1.07-0.19,1.27-1.01c0.34-1.41,0.64-2.82,0.94-4.24   c2.94-13.58,5.89-27.16,8.83-40.74c0.5-2.3,0.99-4.6,1.5-6.9c0.33-1.49,0.85-1.91,2.37-1.91c3.81,0,7.61,0,11.42,0   c0.13,0,0.27,0,0.4,0c1.31,0.07,1.85,0.7,1.56,1.98c-0.45,2-0.94,3.99-1.42,5.99c-3.96,16.48-7.92,32.97-11.92,49.45   c-0.33,1.36-0.83,2.71-1.46,3.96c-1.55,3.04-4.16,4.83-7.43,5.57c-4.03,0.92-8.09,0.92-12.11-0.06c-4.21-1.02-7.01-3.65-8.29-7.76   c-0.72-2.31-1.23-4.68-1.8-7.04c-3.96-16.45-7.91-32.9-11.87-49.36c-0.07-0.29-0.15-0.59-0.21-0.88c-0.17-0.89,0.2-1.52,1.08-1.75   c0.32-0.08,0.66-0.1,1-0.1C312.2,27.45,314.12,27.45,316.04,27.45z"/>
	<path d="M392.54,26.62c6.34,0.21,12.14,0.66,17.87,1.8c2.1,0.42,2.31,0.68,2.31,2.8c0,2.42,0,4.85,0,7.27   c0,0.27,0.01,0.54-0.01,0.81c-0.06,1.13-0.52,1.57-1.67,1.54c-0.91-0.03-1.82-0.11-2.72-0.17c-5.41-0.38-10.82-0.77-16.25-0.78   c-1.35,0-2.69,0.04-4,0.44c-3.26,1-4.31,5.07-1.83,7.44c0.98,0.94,2.18,1.69,3.37,2.37c2.57,1.47,5.2,2.84,7.8,4.25   c1.81,0.98,3.62,1.95,5.42,2.93c1.99,1.08,3.86,2.33,5.57,3.83c3.26,2.86,5.43,6.37,5.93,10.71c0.49,4.26,0.29,8.47-1.79,12.4   c-2.4,4.53-6.18,7.37-10.93,9.05c-3.5,1.23-7.14,1.69-10.82,1.74c-5.68,0.06-11.3-0.42-16.83-1.77c-0.55-0.13-1.1-0.31-1.62-0.54   c-0.67-0.3-1.03-0.84-1.03-1.6c0-2.9-0.02-5.79,0.01-8.69c0.02-1.25,0.59-1.75,1.88-1.67c2.15,0.13,4.3,0.37,6.45,0.49   c3.8,0.21,7.6,0.41,11.4,0.51c1.13,0.03,2.29-0.16,3.39-0.43c2.16-0.51,3.42-1.91,3.69-4.15c0.06-0.5,0.11-1,0.13-1.51   c0.06-1.57-0.47-2.95-1.68-3.95c-1.16-0.96-2.39-1.87-3.67-2.66c-3.5-2.15-7.05-4.21-10.58-6.31c-1.13-0.67-2.26-1.34-3.38-2.03   c-1.75-1.09-3.37-2.35-4.81-3.84c-2.86-2.95-4.41-6.49-4.73-10.56c-0.18-2.36-0.12-4.71,0.43-7.03c1.27-5.33,4.66-8.74,9.68-10.67   c2.76-1.06,5.64-1.57,8.57-1.8C389.74,26.7,391.39,26.67,392.54,26.62z"/>
	<path d="M287,40.14c0,0.57,0,1,0,1.43c0,16.6,0,33.21,0,49.81c0,0.4,0.01,0.81-0.03,1.21c-0.1,0.9-0.66,1.47-1.54,1.62   c-0.3,0.05-0.6,0.04-0.91,0.04c-3.47,0-6.94,0-10.41,0c-0.34,0-0.68,0-1-0.07c-0.8-0.16-1.31-0.7-1.42-1.51   c-0.05-0.4-0.04-0.81-0.04-1.21c0-16.6,0-33.21,0-49.81c0-0.46,0-0.93,0-1.51c-0.48,0-0.84,0-1.2,0c-4.21,0-8.42,0-12.63,0   c-0.27,0-0.54,0.01-0.81-0.01c-1.14-0.07-1.79-0.72-1.81-1.87c-0.02-1.18-0.01-2.36-0.01-3.54c0-1.75-0.01-3.5,0-5.25   c0.01-1.32,0.65-1.96,1.99-2.02c0.2-0.01,0.4,0,0.61,0c14.35,0,28.7,0,43.06,0c0.4,0,0.81,0,1.2,0.09c0.89,0.2,1.41,0.8,1.41,1.72   c0.02,3.03,0.02,6.06,0,9.09c-0.01,0.96-0.67,1.62-1.63,1.75c-0.3,0.04-0.61,0.02-0.91,0.02c-4.21,0-8.42,0-12.63,0   C287.9,40.14,287.53,40.14,287,40.14z" style=""/>
	<path d="M178.54,40.14c0,0.59,0,1.02,0,1.45c0,16.67,0,33.34,0,50.01c0,2.12-0.51,2.64-2.61,2.64c-3.4,0-6.81,0-10.21,0   c-0.37,0-0.75,0-1.1-0.07c-0.83-0.17-1.35-0.77-1.43-1.61c-0.03-0.33-0.01-0.67-0.01-1.01c0-16.67,0-33.34,0-50.01   c0-0.43,0-0.86,0-1.4c-0.48,0-0.84,0-1.2,0c-4.25,0-8.49,0-12.74,0c-0.3,0-0.61,0.02-0.91-0.02c-0.94-0.11-1.52-0.71-1.58-1.66   c-0.04-0.6-0.01-1.21-0.02-1.82c0-2.36-0.01-4.72,0-7.07c0.01-1.48,0.61-2.09,2.07-2.11c1.35-0.02,2.7,0,4.04,0   c13.14,0,26.28,0,39.42,0c0.47,0,0.95,0.01,1.4,0.13c0.82,0.21,1.27,0.76,1.27,1.6c0.02,3.06,0.02,6.13,0,9.19   c-0.01,0.97-0.65,1.62-1.63,1.74c-0.3,0.04-0.61,0.02-0.91,0.02c-4.21,0-8.42,0-12.63,0C179.41,40.14,179.05,40.14,178.54,40.14z" style=""/>
	<path d="M41.66,41.13c3.52,0.88,7.05,1.74,10.57,2.65c7.23,1.88,14.44,3.81,21.5,6.25c1.27,0.44,2.5,0.99,3.77,1.44   c1.13,0.4,1.75,1.2,1.95,2.35c0.3,1.72,0.65,3.44,0.83,5.17c0.7,6.67,0.83,13.36,0.8,20.06c0,0.3,0.02,0.6,0.03,0.91   c-10.21-2.44-20.37-5.03-30.35-8.29c-1.88-0.61-3.72-1.39-5.57-2.08c-0.96-0.36-1.56-1.01-1.73-2.04   c-0.32-1.92-0.74-3.83-0.94-5.77c-0.68-6.57-0.77-13.16-0.77-19.76C41.74,41.73,41.69,41.43,41.66,41.13z"/>
</g>
</svg>